<svg version="1.1" id="Layer_1" xmlns="http://www.w3.org/2000/svg" xmlns:xlink="http://www.w3.org/1999/xlink" x="0px" y="0px"
	 width="100%" viewBox="0 0 1493 1228" enable-background="new 0 0 1493 1228" xml:space="preserve">
<path fill="#ffffff" opacity="0" stroke="none" 
	d="
M1328.000000,1.000011 
	C1383.326050,1.000000 1438.652222,1.000000 1493.983643,1.000000 
	C1493.989136,410.272583 1493.989136,819.545166 1493.989136,1228.908936 
	C996.333313,1228.908936 498.666687,1228.908936 1.000000,1228.908936 
	C1.000000,1130.890381 1.000000,1032.903076 1.369551,934.468750 
	C2.804729,935.569397 3.978823,937.054382 4.918269,938.675354 
	C10.777239,948.784668 19.390390,954.919983 31.161409,954.925232 
	C256.448029,955.025818 481.734711,955.006470 707.021362,954.943665 
	C710.932556,954.942566 714.918640,954.441101 718.741394,953.594177 
	C733.851990,950.246277 747.944336,944.484192 760.271362,934.930481 
	C774.408813,923.973572 785.801880,910.713806 791.950562,893.752747 
	C796.095581,882.318909 799.298645,870.526611 802.565063,858.794983 
	C808.844055,836.242981 814.902344,813.629272 820.989075,791.024170 
	C826.568726,770.302063 832.027344,749.547302 837.608582,728.825562 
	C843.696899,706.221069 849.901123,683.647644 855.987915,661.042664 
	C861.567810,640.320557 867.017883,619.563354 872.599304,598.841553 
	C878.687683,576.237183 884.899719,553.666016 890.986572,531.061218 
	C896.566589,510.338928 902.022949,489.583374 907.586060,468.856506 
	C913.696655,446.090393 919.883057,423.344574 926.006958,400.582031 
	C932.511841,376.403046 938.969910,352.211456 945.471130,328.031494 
	C951.971252,303.855896 958.507935,279.690094 965.013367,255.515900 
	C971.519775,231.337753 977.995361,207.151321 984.506226,182.974380 
	C992.326538,153.935211 1000.451416,124.974251 1007.900330,95.840302 
	C1012.559265,77.618393 1026.379517,65.913712 1045.116699,65.940735 
	C1136.097656,66.071945 1227.078857,66.017502 1318.060059,65.977882 
	C1329.504517,65.972900 1338.697632,60.542385 1344.634766,51.391506 
	C1356.873657,32.527180 1347.442749,9.361122 1329.362549,2.932231 
	C1328.755981,2.716547 1328.447388,1.663004 1328.000000,1.000011 
M1402.287842,236.207932 
	C1398.966064,237.451416 1395.536865,238.467133 1392.340698,239.976639 
	C1375.799805,247.788467 1359.304688,255.698105 1342.820557,263.629547 
	C1329.439819,270.067841 1316.097046,276.585114 1302.748657,283.061920 
	C1296.197510,271.805145 1287.896118,262.333191 1277.862549,254.442078 
	C1255.353149,236.739243 1229.125122,229.905167 1201.088257,229.137100 
	C1192.749756,228.908691 1184.337524,230.077209 1176.009399,231.041641 
	C1158.979370,233.013840 1143.163208,238.662521 1128.129150,246.912933 
	C1100.683105,261.974823 1081.196533,284.469086 1067.085083,311.893005 
	C1053.880249,337.555359 1047.802734,365.285004 1046.222046,393.841827 
	C1045.334717,409.873596 1045.837158,426.101776 1047.233887,442.108826 
	C1048.820312,460.292084 1053.137939,478.059387 1059.609131,495.252197 
	C1069.622314,521.855469 1084.909668,544.876221 1106.751343,563.059570 
	C1130.021118,582.431824 1157.318237,592.736023 1187.405273,594.846924 
	C1205.350586,596.105957 1223.263428,594.706970 1240.566040,588.989868 
	C1263.704834,581.344299 1283.480347,568.891907 1297.771484,548.706238 
	C1302.387817,542.185791 1302.290161,542.121094 1309.929810,544.938660 
	C1310.995117,545.331543 1312.133911,545.559448 1313.148438,546.050354 
	C1335.364502,556.799072 1357.490479,567.738647 1379.817139,578.251770 
	C1387.270752,581.761475 1395.231689,584.193237 1403.411133,587.788879 
	C1407.726318,588.484863 1405.919067,585.100464 1405.920288,583.550659 
	C1406.007446,468.437805 1406.000977,353.324921 1405.987915,238.212006 
	C1405.987671,236.835052 1405.804199,235.458130 1405.606567,232.677475 
	C1404.156372,234.433853 1403.558228,235.158188 1402.287842,236.207932 
z"/>
<path fill="#ffffff" opacity="0" stroke="none" 
	d="
M0.999991,911.000000 
	C1.000000,607.730652 1.000000,304.461304 1.000000,1.000000 
	C341.364227,1.000000 681.728516,1.000000 1022.875854,1.313033 
	C1023.161865,2.050370 1022.716125,2.755778 1022.160095,2.857313 
	C1011.949829,4.721835 1002.543884,8.641747 993.583435,13.779527 
	C972.520874,25.856443 956.841797,42.895611 949.170715,65.952446 
	C942.199463,86.905777 936.853149,108.408127 931.044312,129.737579 
	C924.421814,154.054550 918.140686,178.464294 911.599670,202.803726 
	C904.806335,228.082062 897.694702,253.276947 891.170715,278.623749 
	C889.900146,283.560181 888.168579,285.119019 883.060913,285.114227 
	C733.075256,284.973267 583.089539,284.998596 433.103760,285.014771 
	C431.123474,285.014984 429.073730,284.947388 427.173676,285.401794 
	C409.633392,289.597076 398.220306,306.790161 401.825439,324.313782 
	C404.581573,337.710815 418.229950,350.047058 431.685272,350.040863 
	C576.171509,349.974396 720.657837,349.999390 865.144104,349.999359 
	C867.250183,349.999359 869.356201,349.999359 871.752075,349.999359 
	C866.296936,370.556732 861.028625,390.703461 855.596252,410.805817 
	C849.149536,434.661743 842.338623,458.422577 836.229126,482.363312 
	C835.053711,486.969482 832.919128,487.037933 829.393372,487.037140 
	C648.243896,486.994934 467.094452,486.991211 285.945007,487.067688 
	C282.579651,487.069122 278.964111,487.470428 275.891113,488.726715 
	C258.593353,495.798248 252.718842,510.349945 255.343414,524.983215 
	C258.293518,541.431458 270.505524,551.948730 288.304108,551.956116 
	C462.287567,552.028259 636.271057,551.999573 810.254517,551.999512 
	C812.395386,551.999512 814.536194,551.999512 816.843628,551.999512 
	C816.843628,553.383667 817.055847,554.405579 816.813049,555.304565 
	C805.409485,597.527344 793.849792,639.708557 782.680481,681.993042 
	C781.336487,687.080872 779.287598,688.121826 774.370300,688.118591 
	C562.723755,687.980469 351.077209,687.994507 139.430649,688.040771 
	C135.672653,688.041565 131.866959,688.385315 128.164673,689.032898 
	C105.439537,693.007751 96.370644,716.021484 104.673050,735.015320 
	C110.354752,748.013733 121.550270,753.921875 135.357544,753.928772 
	C342.337830,754.031677 549.318176,754.000000 756.298523,754.000000 
	C758.431763,754.000000 760.565002,754.000000 763.057617,754.000000 
	C761.090210,761.373718 759.269287,768.272034 757.408569,775.159607 
	C749.945496,802.784485 741.842285,830.256348 735.214111,858.079834 
	C730.590820,877.487549 716.067749,890.172058 694.904175,890.148865 
	C474.425385,889.907227 253.946243,889.997986 33.467194,890.005005 
	C20.093048,890.005432 10.370296,896.081604 3.993023,907.773560 
	C3.312177,909.021790 2.012558,909.932617 0.999991,911.000000 
z"/>
<path fill="#FE0034" opacity="1.000000" stroke="none" 
	d="
M0.999991,911.468628 
	C2.012558,909.932617 3.312177,909.021790 3.993023,907.773560 
	C10.370296,896.081604 20.093048,890.005432 33.467194,890.005005 
	C253.946243,889.997986 474.425385,889.907227 694.904175,890.148865 
	C716.067749,890.172058 730.590820,877.487549 735.214111,858.079834 
	C741.842285,830.256348 749.945496,802.784485 757.408569,775.159607 
	C759.269287,768.272034 761.090210,761.373718 763.057617,754.000000 
	C760.565002,754.000000 758.431763,754.000000 756.298523,754.000000 
	C549.318176,754.000000 342.337830,754.031677 135.357544,753.928772 
	C121.550270,753.921875 110.354752,748.013733 104.673050,735.015320 
	C96.370644,716.021484 105.439537,693.007751 128.164673,689.032898 
	C131.866959,688.385315 135.672653,688.041565 139.430649,688.040771 
	C351.077209,687.994507 562.723755,687.980469 774.370300,688.118591 
	C779.287598,688.121826 781.336487,687.080872 782.680481,681.993042 
	C793.849792,639.708557 805.409485,597.527344 816.813049,555.304565 
	C817.055847,554.405579 816.843628,553.383667 816.843628,551.999512 
	C814.536194,551.999512 812.395386,551.999512 810.254517,551.999512 
	C636.271057,551.999573 462.287567,552.028259 288.304108,551.956116 
	C270.505524,551.948730 258.293518,541.431458 255.343414,524.983215 
	C252.718842,510.349945 258.593353,495.798248 275.891113,488.726715 
	C278.964111,487.470428 282.579651,487.069122 285.945007,487.067688 
	C467.094452,486.991211 648.243896,486.994934 829.393372,487.037140 
	C832.919128,487.037933 835.053711,486.969482 836.229126,482.363312 
	C842.338623,458.422577 849.149536,434.661743 855.596252,410.805817 
	C861.028625,390.703461 866.296936,370.556732 871.752075,349.999359 
	C869.356201,349.999359 867.250183,349.999359 865.144104,349.999359 
	C720.657837,349.999390 576.171509,349.974396 431.685272,350.040863 
	C418.229950,350.047058 404.581573,337.710815 401.825439,324.313782 
	C398.220306,306.790161 409.633392,289.597076 427.173676,285.401794 
	C429.073730,284.947388 431.123474,285.014984 433.103760,285.014771 
	C583.089539,284.998596 733.075256,284.973267 883.060913,285.114227 
	C888.168579,285.119019 889.900146,283.560181 891.170715,278.623749 
	C897.694702,253.276947 904.806335,228.082062 911.599670,202.803726 
	C918.140686,178.464294 924.421814,154.054550 931.044312,129.737579 
	C936.853149,108.408127 942.199463,86.905777 949.170715,65.952446 
	C956.841797,42.895611 972.520874,25.856443 993.583435,13.779527 
	C1002.543884,8.641747 1011.949829,4.721835 1022.160095,2.857313 
	C1022.716125,2.755778 1023.161865,2.050370 1023.329468,1.313033 
	C1124.354248,1.000000 1225.708496,1.000000 1327.531372,1.000011 
	C1328.447388,1.663004 1328.755981,2.716547 1329.362549,2.932231 
	C1347.442749,9.361122 1356.873657,32.527180 1344.634766,51.391506 
	C1338.697632,60.542385 1329.504517,65.972900 1318.060059,65.977882 
	C1227.078857,66.017502 1136.097656,66.071945 1045.116699,65.940735 
	C1026.379517,65.913712 1012.559265,77.618393 1007.900330,95.840302 
	C1000.451416,124.974251 992.326538,153.935211 984.506226,182.974380 
	C977.995361,207.151321 971.519775,231.337753 965.013367,255.515900 
	C958.507935,279.690094 951.971252,303.855896 945.471130,328.031494 
	C938.969910,352.211456 932.511841,376.403046 926.006958,400.582031 
	C919.883057,423.344574 913.696655,446.090393 907.586060,468.856506 
	C902.022949,489.583374 896.566589,510.338928 890.986572,531.061218 
	C884.899719,553.666016 878.687683,576.237183 872.599304,598.841553 
	C867.017883,619.563354 861.567810,640.320557 855.987915,661.042664 
	C849.901123,683.647644 843.696899,706.221069 837.608582,728.825562 
	C832.027344,749.547302 826.568726,770.302063 820.989075,791.024170 
	C814.902344,813.629272 808.844055,836.242981 802.565063,858.794983 
	C799.298645,870.526611 796.095581,882.318909 791.950562,893.752747 
	C785.801880,910.713806 774.408813,923.973572 760.271362,934.930481 
	C747.944336,944.484192 733.851990,950.246277 718.741394,953.594177 
	C714.918640,954.441101 710.932556,954.942566 707.021362,954.943665 
	C481.734711,955.006470 256.448029,955.025818 31.161409,954.925232 
	C19.390390,954.919983 10.777239,948.784668 4.918269,938.675354 
	C3.978823,937.054382 2.804729,935.569397 1.369551,934.010803 
	C1.000000,926.645752 1.000000,919.291504 0.999991,911.468628 
z"/>
<path fill="#FE0034" opacity="1.000000" stroke="none" 
	d="
M1402.960815,587.117676 
	C1395.231689,584.193237 1387.270752,581.761475 1379.817139,578.251770 
	C1357.490479,567.738647 1335.364502,556.799072 1313.148438,546.050354 
	C1312.133911,545.559448 1310.995117,545.331543 1309.929810,544.938660 
	C1302.290161,542.121094 1302.387817,542.185791 1297.771484,548.706238 
	C1283.480347,568.891907 1263.704834,581.344299 1240.566040,588.989868 
	C1223.263428,594.706970 1205.350586,596.105957 1187.405273,594.846924 
	C1157.318237,592.736023 1130.021118,582.431824 1106.751343,563.059570 
	C1084.909668,544.876221 1069.622314,521.855469 1059.609131,495.252197 
	C1053.137939,478.059387 1048.820312,460.292084 1047.233887,442.108826 
	C1045.837158,426.101776 1045.334717,409.873596 1046.222046,393.841827 
	C1047.802734,365.285004 1053.880249,337.555359 1067.085083,311.893005 
	C1081.196533,284.469086 1100.683105,261.974823 1128.129150,246.912933 
	C1143.163208,238.662521 1158.979370,233.013840 1176.009399,231.041641 
	C1184.337524,230.077209 1192.749756,228.908691 1201.088257,229.137100 
	C1229.125122,229.905167 1255.353149,236.739243 1277.862549,254.442078 
	C1287.896118,262.333191 1296.197510,271.805145 1302.748657,283.061920 
	C1316.097046,276.585114 1329.439819,270.067841 1342.820557,263.629547 
	C1359.304688,255.698105 1375.799805,247.788467 1392.340698,239.976639 
	C1395.536865,238.467133 1398.966064,237.451416 1402.631348,236.521332 
	C1402.970093,353.595703 1402.965454,470.356689 1402.960815,587.117676 
M1255.302368,341.007996 
	C1245.436768,338.601837 1235.534424,338.192719 1225.487427,339.952393 
	C1195.723755,345.165344 1175.577881,371.103851 1174.188599,401.087189 
	C1173.680664,412.048004 1174.352661,423.277344 1176.218628,434.085083 
	C1179.151611,451.074310 1187.667847,465.230927 1202.300415,475.021179 
	C1214.940552,483.478333 1228.739746,486.643280 1244.099121,485.205383 
	C1258.886108,483.821045 1271.218994,477.975006 1281.479614,467.842499 
	C1291.396118,458.049866 1297.638428,446.178558 1300.214600,432.164032 
	C1302.577393,419.310303 1303.195435,406.420807 1300.683228,393.838196 
	C1295.595459,368.356812 1281.343994,349.907532 1255.302368,341.007996 
z"/>
<path fill="#FE0034" opacity="1.000000" stroke="none" 
	d="
M1403.186035,587.453247 
	C1402.965454,470.356689 1402.970093,353.595703 1402.967529,236.358627 
	C1403.558228,235.158188 1404.156372,234.433853 1405.606567,232.677475 
	C1405.804199,235.458130 1405.987671,236.835052 1405.987915,238.212006 
	C1406.000977,353.324921 1406.007446,468.437805 1405.920288,583.550659 
	C1405.919067,585.100464 1407.726318,588.484863 1403.186035,587.453247 
z"/>
<path fill="#ffffff" opacity="0" stroke="none" 
	d="
M1255.717529,341.037292 
	C1281.343994,349.907532 1295.595459,368.356812 1300.683228,393.838196 
	C1303.195435,406.420807 1302.577393,419.310303 1300.214600,432.164032 
	C1297.638428,446.178558 1291.396118,458.049866 1281.479614,467.842499 
	C1271.218994,477.975006 1258.886108,483.821045 1244.099121,485.205383 
	C1228.739746,486.643280 1214.940552,483.478333 1202.300415,475.021179 
	C1187.667847,465.230927 1179.151611,451.074310 1176.218628,434.085083 
	C1174.352661,423.277344 1173.680664,412.048004 1174.188599,401.087189 
	C1175.577881,371.103851 1195.723755,345.165344 1225.487427,339.952393 
	C1235.534424,338.192719 1245.436768,338.601837 1255.717529,341.037292 
z"/>
</svg>